<?xml version="1.0" encoding="UTF-8"?>
<svg width="75px" height="48px" viewBox="0 0 75 48" version="1.1" xmlns="http://www.w3.org/2000/svg" xmlns:xlink="http://www.w3.org/1999/xlink">
  <g id="cow">
    <path d="M74.8953132,0.733958036 C74.5525394,0.212434838 72.9132148,-0.159870209 71.869754,0.346681819 C70.8267868,0.853233846 69.6791609,2.06014053 69.0531831,1.86650242 C68.4272054,1.67269979 67.5627834,0.342239823 66.6239813,0.105991459 C65.6848501,-0.130256904 65.0886573,0.272155002 64.7458834,0.25734835 C64.4031096,0.242377179 62.5849108,-0.10459204 62.1379718,0.031629161 C61.6907038,0.167850362 61.1540809,1.06184313 60.5134575,1.43431269 C59.8723404,1.80694677 59.6786559,1.95583589 59.4252369,1.88130907 C59.171818,1.80694677 58.3671305,0.629817914 57.502873,0.436179806 C56.6382865,0.242377179 55.1776717,0.242377179 54.7307328,0.480599763 C54.2834648,0.719151383 54.0302104,0.972509656 54.1792997,1.21089676 C54.3282245,1.44928386 54.5518585,1.94102924 54.5518585,1.94102924 C54.5518585,1.94102924 54.2090847,1.89628024 53.7767914,1.82175343 C53.3446627,1.74739113 50.8160679,0.922825112 48.8535519,0.753864757 C46.8912005,0.584904402 42.9118644,0.972509656 40.2591931,1.12139877 C37.6061927,1.2704524 34.6851277,1.0320653 33.1947279,1.33000805 C31.7043282,1.62811532 31.1379203,1.80694677 29.2005816,1.53861733 C27.2630784,1.2704524 18.4995542,1.62285073 16.4131262,1.6700675 C14.3265336,1.71744879 12.4487649,1.05460432 10.7794908,1.16252836 C9.11021678,1.2704524 8.60354339,0.883176187 6.9640543,0.912789492 C5.32472976,0.942567315 4.16212909,0.733958036 2.76124877,1.50883951 C1.36020389,2.28372098 0.465996951,3.5949323 0.138197867,5.41286017 C-0.189765775,7.23062352 0.138197867,10.7470389 0.37664208,11.5515337 C0.615086293,12.356193 1.86704183,17.988479 1.98618166,19.7466867 C2.07356184,21.0345364 1.68142066,23.9519405 1.53545792,25.8312337 C1.28253262,26.1732674 1.03964535,26.6322736 0.777998489,26.6891969 C1.00986039,26.8446668 1.34950764,26.788237 1.34950764,26.788237 C0.772074409,27.2742242 0.527047885,28.1756203 0.619200238,28.6593043 C0.723858981,28.4044654 0.986493188,28.105371 1.18330428,28.1119517 C0.435882878,29.9923966 2.82197059,31.3220339 1.23398808,33.5499416 C2.12556209,33.3438001 2.32615802,32.0014948 2.32615802,32.0014948 C2.32615802,32.0014948 2.65329887,32.1994103 2.60014671,32.7128721 C2.67205846,32.6659844 2.71813463,32.5840543 2.7459449,32.4822174 C2.75121075,32.545886 2.7564766,32.6110353 2.76124877,32.6799685 C2.82081869,33.5443479 2.93008505,34.7662258 3.10895935,35.4019247 C3.28783365,36.0376237 3.36731505,39.7328705 3.46670795,40.7459746 C3.56593628,41.7594077 3.70515216,42.3951066 3.60575926,43.0108988 C3.50636637,43.626691 3.24817522,44.8783467 3.60575926,44.9777158 C3.96350786,45.0770849 4.36091488,44.5011061 4.71866348,44.9777158 C5.07624752,45.45449 4.5993591,46.5274788 5.05633603,46.8652349 C5.51347753,47.2026621 6.08975885,47.7788054 6.94430737,47.9380592 C7.79869132,48.0969839 8.67298677,47.9378946 9.09046984,47.6001385 C9.50778836,47.2623823 9.56719371,46.9445328 9.09046984,46.6664968 C8.61341686,46.3882962 8.07679396,45.5142102 7.89791966,45.1565473 C7.71920992,44.7988844 7.9379072,44.6200529 7.56024711,44.1434432 C7.18258702,43.6665045 6.94430737,43.5672999 6.84491447,42.9314365 C6.74552158,42.2957375 6.58655877,41.24282 6.46725438,40.5671431 C6.34795,39.8917953 6.22881017,38.0243474 6.22881017,38.0243474 C6.22881017,38.0243474 6.46725438,38.4216592 6.52698885,38.9778958 C6.58655877,39.5341323 6.64612868,40.5274942 6.78534456,41.0044329 C6.92423132,41.4812071 7.08335868,41.9181679 7.06344719,42.2957375 C7.0435357,42.6731426 7.02362421,43.805687 7.46085422,43.7063179 C7.89791966,43.6069488 7.99731256,43.3289128 8.29549124,43.5872066 C8.59350537,43.8453359 8.39471958,44.8982534 8.73272124,45.2161029 C9.0703938,45.5341169 9.66658661,46.2094648 10.0839051,46.2691849 C10.5012236,46.3287406 11.8127491,46.3285761 12.3294605,45.9908199 C12.8460073,45.6532282 13.2832373,45.2557518 12.8460073,44.8386978 C12.4089419,44.4214792 11.7332677,43.9249628 11.4352536,43.4281174 C11.1370749,42.9314365 10.9185421,42.4347555 10.5808696,42.1766262 C10.2428679,41.9181679 10.143475,41.1432864 9.82554942,40.4878453 C9.5076238,39.8324041 9.13012827,38.540935 9.09046984,37.6270355 C9.0504823,36.713136 8.83211414,35.4415736 8.9710009,34.6270433 C9.11021678,33.8125129 9.46796538,33.0376314 9.44805388,32.4220037 C9.42814239,31.806047 9.64667512,30.6736671 9.6864981,30.2363773 C9.72632108,29.799252 9.7659795,29.6006783 9.7659795,29.6006783 C9.7659795,29.6006783 10.8540355,29.983019 11.0327452,30.1472083 C11.2116195,30.3110686 11.3309239,31.0857856 11.7034827,31.2943949 C12.0760415,31.5030041 12.2847008,31.3687572 12.3442707,30.8622051 C12.4038406,30.3556531 12.0612313,29.3124422 12.5529299,28.9103593 C13.0447931,28.5079474 13.1938825,28.1654202 13.6260112,28.2993381 C14.0583045,28.4335851 14.1774443,28.8953881 14.2669637,29.342549 C14.3563186,29.7895454 14.4308633,30.3556531 14.8927769,30.3258753 C15.3548552,30.2960975 15.5487042,30.0873237 15.5337295,29.476467 C15.5187547,28.8654458 15.3548552,28.150449 15.5487042,27.8077573 C15.7423887,27.4650655 16.1894922,26.407048 16.4131262,26.2729655 C16.6365956,26.138883 16.9048248,25.8855248 17.0986739,25.6321665 C17.2923584,25.3789727 17.5159924,25.0213098 17.7694114,25.0361165 C18.0226658,25.0512522 19.7664845,26.3027433 21.0034653,26.6604062 C22.2404461,27.0180691 23.8649604,27.8523417 25.4745,27.8970907 C27.0842041,27.9418397 29.7668249,27.9418397 31.4211242,27.5246212 C33.0754235,27.1074026 36.056223,26.0345784 37.6061927,25.453335 C39.1563269,24.8724207 40.8104616,24.4102886 40.8104616,24.4102886 C40.8104616,24.4102886 40.7211068,26.3772701 40.7211068,27.1223738 C40.7211068,27.8673129 40.6913218,28.9549438 40.572182,29.5062448 C40.4528776,30.0577104 40.3633582,31.0560078 40.4974728,31.4136707 C40.6315873,31.7711691 41.0043107,33.3059608 40.8254364,34.5873943 C40.6465621,35.8688278 40.4676878,37.5970932 40.3185985,38.0442541 C40.1696737,38.491086 40.2144334,39.042387 40.095129,39.2509963 C39.9758246,39.4596055 39.5586707,40.5325943 39.8864697,40.741039 C40.2144334,40.9498128 40.5274223,40.6964546 40.6465621,41.0987019 C40.7658665,41.5009493 40.7658665,42.1863328 41.0043107,42.6483004 C41.2427549,43.1101034 41.9432774,44.123372 42.8075348,44.2873968 C43.6719568,44.4512571 45.0134317,44.3617591 45.4157755,43.9445405 C45.8181192,43.5274865 45.8480688,43.2741282 45.4009653,43.0059633 C44.9536973,42.7377984 44.4022642,41.9778881 44.2831243,41.605254 C44.1638199,41.2327844 43.8508311,40.8005947 43.5677917,40.3833761 C43.2844232,39.9663221 43.1950683,39.087136 43.0609538,38.3421968 C42.9268392,37.5970932 42.7032052,35.198251 42.9566241,34.4085629 C43.2100431,33.6188748 43.8658058,33.141936 44.1341995,32.4863304 C44.4022642,31.8308892 44.5811385,30.7430938 44.5961132,29.8640722 C44.6109234,28.9848861 44.7897977,27.7927861 44.7897977,27.7927861 C44.7897977,27.7927861 44.9388871,28.9549438 45.1177614,29.5957428 C45.2966357,30.2363773 45.0580269,32.1584453 45.2072808,32.5460505 C45.3562056,32.9333267 45.9672086,33.7675993 46.1608931,35.153502 C46.3547421,36.5390756 46.5336164,37.8206736 46.5484266,38.6847241 C46.5634014,39.5491035 46.667731,40.4133185 46.6827058,40.6071211 C46.697516,40.8005947 46.2951722,41.7393364 46.5634014,42.1267772 C46.8316306,42.5140534 47.3234938,42.0224725 47.6512928,42.3651643 C47.9792565,42.707856 47.7258375,43.572071 47.9494715,44.0190673 C48.172941,44.4662282 48.8287037,45.3006654 49.5739859,45.40497 C50.3191035,45.5092746 51.4667294,45.5538591 52.0031877,45.2110028 C52.5398106,44.8684756 52.6143553,44.4958415 52.2268217,44.257619 C51.8392882,44.0190673 51.2432599,43.1250746 50.9898409,42.6185225 C50.736422,42.1119705 50.3936481,41.3073112 50.2147738,41.0837308 C50.0358995,40.8603148 50.0806592,40.4133185 49.9465447,40.1153757 C49.8124301,39.8172684 48.9478435,37.5822865 48.754159,36.658516 C48.5604745,35.7344163 48.396575,34.7662258 48.6350192,34.4383407 C48.8734634,34.1104556 49.3353771,32.9782403 49.3951116,32.3074989 C49.454846,31.6369221 49.2759717,31.0110942 49.1714775,30.1472083 C49.0673125,29.2828289 49.3205669,27.0180691 49.3205669,27.0180691 C49.3205669,27.0180691 50.5427375,27.1371804 51.3028298,26.7647109 C52.0629222,26.3922413 52.9869141,25.6471377 53.4190428,24.9318118 C53.8513361,24.216815 55.6249397,22.2202202 56.2805379,21.7432815 C56.9363006,21.2665073 58.2033955,20.3577079 58.6355242,19.5828264 C59.0678175,18.8081095 59.7979603,17.3478445 60.3345832,16.662461 C60.8712061,15.9770776 61.2585751,15.6939415 61.3629047,15.5299167 C61.4672344,15.3660564 61.5266397,15.0681136 61.7206533,14.9786156 C61.9141733,14.8892822 62.0482879,14.6209527 62.2421369,14.5763682 C62.4358214,14.5317838 62.9276846,14.2634543 62.9276846,14.2634543 C62.9276846,14.2634543 62.79357,15.3362785 62.9276846,15.6491925 C63.0617992,15.9621064 64.4480339,16.662461 65.0142772,16.7070455 C65.580685,16.751959 65.9382691,16.4986008 66.3256381,16.5430207 C66.7130071,16.5879342 68.0248616,16.4388806 68.3974204,16.1409378 C68.7699792,15.8428306 68.8295491,15.7383614 68.7699792,15.3063362 C68.7104093,14.8744755 68.5465098,14.233512 68.5165602,13.8909848 C68.4867753,13.548293 68.531535,13.1906301 68.4272054,12.996992 C68.3230403,12.8031894 68.1290267,12.4157486 68.2187107,11.5962827 C68.307901,10.7768167 68.6059151,10.0317131 68.6954345,9.56974554 C68.7847894,9.10794251 68.6162823,8.06489611 68.7902198,7.45403945 C68.9636637,6.84318278 69.0531831,6.67932249 69.0979429,6.14282813 C69.142538,5.60649828 69.0979429,4.69736982 69.172323,4.44417607 C69.2468676,4.19098231 69.2916274,4.04192868 69.6197556,4.02695751 C69.9473901,4.01215086 71.6018539,4.45914724 72.2424773,4.16087545 C72.8835944,3.86309722 73.658497,2.98391111 74.1651704,2.47735909 C74.6720083,1.97080706 75.238087,1.25548123 74.8953132,0.733958036 L74.8953132,0.733958036 Z" id="Path" fill="#4A4A4A"></path>
  </g>
</svg>
