<?xml version="1.0" encoding="UTF-8"?>
<svg width="23px" height="23px" viewBox="0 0 23 23" version="1.1" xmlns="http://www.w3.org/2000/svg" xmlns:xlink="http://www.w3.org/1999/xlink">
	<g id="search">
		<path d="M22.8010645,21.827051 L17.210468,16.237694 C18.7101353,14.513969 19.6180971,12.2649667 19.6180971,9.80687361 C19.6180971,4.39600887 15.2160124,0 9.80904857,0 C4.39698381,0 0,4.40110865 0,9.80687361 C0,15.2126386 4.40208472,19.6137472 9.80904857,19.6137472 C12.2676868,19.6137472 14.5171878,18.7059867 16.2412952,17.2066519 L21.8318918,22.7960089 C21.9645154,22.9286031 22.1430472,23 22.3164782,23 C22.4899091,23 22.6684409,22.9337029 22.8010645,22.7960089 C23.0663118,22.5308204 23.0663118,22.0922395 22.8010645,21.827051 Z M1.3721446,9.80687361 C1.3721446,5.15587583 5.15701929,1.37694013 9.80394766,1.37694013 C14.4559769,1.37694013 18.2357507,5.16097561 18.2357507,9.80687361 C18.2357507,14.4527716 14.4559769,18.2419069 9.80394766,18.2419069 C5.15701929,18.2419069 1.3721446,14.4578714 1.3721446,9.80687361 Z" id="Shape"></path>
	</g>
</svg>
