<?xml version="1.0" encoding="UTF-8"?>
<svg id="close" fill="#4A4A4A" width="23px" height="23px" viewBox="0 0 23 23" version="1.1" xmlns="http://www.w3.org/2000/svg" xmlns:xlink="http://www.w3.org/1999/xlink">
	<g>
		<path d="M0.324,1.909 C-0.105,1.48 -0.105,0.766 0.324,0.322 C0.768,-0.107 1.467,-0.107 1.911,0.322 L11.434,9.861 L20.973,0.322 C21.402,-0.107 22.116,-0.107 22.544,0.322 C22.988,0.766 22.988,1.481 22.544,1.909 L13.021,11.433 L22.544,20.972 C22.988,21.401 22.988,22.115 22.544,22.559 C22.115,22.988 21.401,22.988 20.973,22.559 L11.434,13.02 L1.911,22.559 C1.467,22.988 0.768,22.988 0.324,22.559 C-0.105,22.115 -0.105,21.4 0.324,20.972 L9.847,11.433 L0.324,1.909 Z" id="Path"></path>
	</g>
</svg>
